<svg width="16" height="16" viewBox="0 0 16 16" fill="none" xmlns="http://www.w3.org/2000/svg">
<path d="M1.23706 8.57679L0 9.81384L4.3297 11.6694L6.18616 16L7.42321 14.7629L6.80468 11.6694L9.7031 8.77101L12.8614 15.511L14.0328 14.3395L12.9917 5.48327L15.4658 3.00828C15.6329 2.84688 15.7662 2.6538 15.8579 2.44033C15.9496 2.22686 15.9979 1.99726 15.9999 1.76493C16.002 1.5326 15.9577 1.3022 15.8697 1.08716C15.7817 0.87213 15.6518 0.67677 15.4875 0.512483C15.3232 0.348197 15.1279 0.218274 14.9128 0.130296C14.6978 0.0423185 14.4674 -0.0019528 14.2351 6.60636e-05C14.0027 0.00208493 13.7731 0.0503536 13.5597 0.142055C13.3462 0.233756 13.1531 0.367054 12.9917 0.534171L10.452 3.0739L1.59575 2.03194L0.489048 3.13951L7.1765 6.35026L4.33057 9.19619L1.23706 8.57679Z" fill="#3F51B5"/>
</svg>
