<svg width="10" height="16" viewBox="0 0 10 16" fill="none" xmlns="http://www.w3.org/2000/svg">
<path d="M7.63636 0H1.81818C1.33597 0 0.873508 0.191558 0.532533 0.532533C0.191558 0.873508 0 1.33597 0 1.81818V14.1818C0 14.664 0.191558 15.1265 0.532533 15.4675C0.873508 15.8084 1.33597 16 1.81818 16H7.63636C8.11858 16 8.58104 15.8084 8.92201 15.4675C9.26299 15.1265 9.45455 14.664 9.45455 14.1818V1.81818C9.45455 1.33597 9.26299 0.873508 8.92201 0.532533C8.58104 0.191558 8.11858 0 7.63636 0ZM4.72727 15.2727C4.12364 15.2727 3.63636 14.7855 3.63636 14.1818C3.63636 13.5782 4.12364 13.0909 4.72727 13.0909C5.33091 13.0909 5.81818 13.5782 5.81818 14.1818C5.81818 14.7855 5.33091 15.2727 4.72727 15.2727ZM8 12.3636H1.45455V2.18182H8V12.3636Z" fill="#009688"/>
</svg>
