<svg width="16" height="17" viewBox="0 0 16 17" fill="none" xmlns="http://www.w3.org/2000/svg">
<path d="M1.6 7.52V2.4C1.6 2.18783 1.68429 1.98434 1.83431 1.83431C1.98434 1.68429 2.18783 1.6 2.4 1.6H6.4V0H9.6V1.6H13.6C13.8122 1.6 14.0157 1.68429 14.1657 1.83431C14.3157 1.98434 14.4 2.18783 14.4 2.4V7.52L15.2688 7.7808C15.4657 7.84005 15.6322 7.97282 15.7338 8.15158C15.8354 8.33033 15.8642 8.54133 15.8144 8.7408L14.6016 13.5952C13.9473 13.6287 13.2947 13.5008 12.7015 13.2226C12.1083 12.9444 11.5926 12.5245 11.2 12C10.8278 12.4972 10.3447 12.9006 9.78919 13.1784C9.23369 13.4561 8.62107 13.6005 8 13.6C7.37893 13.6005 6.76631 13.4561 6.21081 13.1784C5.65531 12.9006 5.17224 12.4972 4.8 12C4.40737 12.5245 3.89172 12.9444 3.2985 13.2226C2.70529 13.5008 2.05274 13.6287 1.3984 13.5952L0.1856 8.7408C0.135758 8.54133 0.164627 8.33033 0.266217 8.15158C0.367807 7.97282 0.534319 7.84005 0.7312 7.7808L1.6 7.52ZM3.2 7.04L8 5.6L10.2032 6.2608L11.6504 6.6952L12.8 7.04V3.2H3.2V7.04ZM1.6 15.2C2.78101 15.2016 3.92086 14.7662 4.8 13.9776C5.67914 14.7662 6.81899 15.2016 8 15.2C9.18101 15.2016 10.3209 14.7662 11.2 13.9776C12.0791 14.7662 13.219 15.2016 14.4 15.2H16V16.8H14.4C13.2765 16.8018 12.1725 16.5065 11.2 15.944C10.2275 16.5065 9.12349 16.8018 8 16.8C6.87651 16.8018 5.77252 16.5065 4.8 15.944C3.82748 16.5065 2.72349 16.8018 1.6 16.8H0V15.2H1.6Z" fill="#2196F2"/>
</svg>
