<svg width="16" height="16" viewBox="0 0 16 16" fill="none" xmlns="http://www.w3.org/2000/svg">
<path d="M9.21913 10.5192L10.5203 9.21807L15.7339 14.4317C16.0887 14.7865 16.0887 15.3689 15.7339 15.7328C15.379 16.0877 14.7967 16.0877 14.4327 15.7328L9.21913 10.5192ZM13.1225 5.30559L14.2781 4.15004C15.0878 3.34025 14.9787 1.93904 13.996 1.34761C12.2377 0.273451 10.1694 -0.178648 8.12328 0.0639164C6.07715 0.306481 4.17191 1.22964 2.71349 2.68514C6.28931 1.50229 10.2746 2.45767 13.1225 5.30559ZM2.68619 2.71243C-0.371001 5.77873 -0.816842 10.4555 1.33957 13.9949C1.94009 14.9776 3.33221 15.0959 4.142 14.277L5.29755 13.1215C2.45872 10.2735 1.50335 6.28826 2.68619 2.71243ZM2.70439 2.69424L2.69529 2.70333C2.34954 5.44207 3.75985 8.9633 6.60777 11.8203L11.8214 6.60672C8.97346 3.75879 5.44313 2.34848 2.70439 2.69424Z" fill="#FEC007"/>
</svg>
