<?xml version="1.0" encoding="UTF-8" standalone="no"?>
<!DOCTYPE svg PUBLIC "-//W3C//DTD SVG 1.1//EN" "http://www.w3.org/Graphics/SVG/1.1/DTD/svg11.dtd">
<svg version="1.1" xmlns="http://www.w3.org/2000/svg" xmlns:xlink="http://www.w3.org/1999/xlink" preserveAspectRatio="xMidYMid meet" viewBox="119.60869565217395 77.76086956521745 478.39130434782606 117.08695652173911" width="91.48" height="20"><defs><path d="M228.7 130.05L499.35 130.05L499.35 142.55L228.7 142.55L228.7 130.05Z" id="j6FQPBK3xR"></path><path d="M590 136.3C590 164.2 567.35 186.85 539.46 186.85C511.56 186.85 488.91 164.2 488.91 136.3C488.91 108.41 511.56 85.76 539.46 85.76C567.35 85.76 590 108.41 590 136.3Z" id="axhBJx0xf"></path><path d="M228.7 136.3C228.7 164.2 206.05 186.85 178.15 186.85C150.26 186.85 127.61 164.2 127.61 136.3C127.61 108.41 150.26 85.76 178.15 85.76C206.05 85.76 228.7 108.41 228.7 136.3Z" id="igg4W3X3Z"></path></defs><g><g><use xlink:href="#j6FQPBK3xR" opacity="1" fill="#dadada" fill-opacity="0.97"></use></g><g><use xlink:href="#axhBJx0xf" opacity="1" fill="#555555" fill-opacity="1"></use><g><use xlink:href="#axhBJx0xf" opacity="1" fill-opacity="0" stroke="#555555" stroke-width="16" stroke-opacity="1"></use></g></g><g><use xlink:href="#igg4W3X3Z" opacity="1" fill="#ffffff" fill-opacity="1"></use><g><use xlink:href="#igg4W3X3Z" opacity="1" fill-opacity="0" stroke="#555555" stroke-width="16" stroke-opacity="1"></use></g></g></g></svg>