<svg width="16" height="14" viewBox="0 0 16 14" fill="none" xmlns="http://www.w3.org/2000/svg">
<path d="M14.1058 9.846C14.4543 9.91941 14.8175 9.85369 15.1189 9.66266C15.4204 9.47163 15.6366 9.17016 15.7222 8.82166V8.8208C15.7656 8.64397 15.7741 8.46024 15.747 8.28012C15.72 8.1 15.658 7.92702 15.5646 7.77108C15.4712 7.61513 15.3482 7.47928 15.2027 7.37129C15.0572 7.2633 14.8921 7.18529 14.7166 7.14172L10.807 6.16562L6.40188 0.295281L4.50176 0.10144L7.00592 5.77794L3.20482 5.39112L1.22951 2.09239L0.0504761 2.35946L1.1099 7.11501L14.1058 9.846ZM0.570789 12.1755H15.9495V13.8986H0.570789V12.1755Z" fill="#184DC9"/>
</svg>
