<svg width="54" height="54" viewBox="0 0 54 54" fill="none" xmlns="http://www.w3.org/2000/svg">
<circle cx="27.2817" cy="27.0704" r="26.7042" fill="#F6F6F6"/>
<path d="M21.4958 13.7183C19.0674 13.7183 16.1549 15.041 16.1549 18.6069V35.0816C16.1549 35.0816 16.1549 36.8619 17.9352 36.8619V38.6422C17.9352 38.6422 17.9352 40.4225 19.7155 40.4225C21.4958 40.4225 21.4958 38.6422 21.4958 38.6422V36.8619H33.9577V38.6422C33.9577 38.6422 33.9577 40.4225 35.738 40.4225C37.5183 40.4225 37.5183 38.6422 37.5183 38.6422V36.8619C37.5183 36.8619 39.2986 36.8619 39.2986 35.0816V18.6069C39.2986 14.9662 37.0981 13.7183 34.6698 13.7183H21.4958ZM21.9408 16.3887H33.5127C33.6307 16.3887 33.7439 16.4356 33.8274 16.519C33.9108 16.6025 33.9577 16.7157 33.9577 16.8338C33.9577 16.9518 33.9108 17.065 33.8274 17.1485C33.7439 17.2319 33.6307 17.2788 33.5127 17.2788H21.9408C21.8228 17.2788 21.7096 17.2319 21.6261 17.1485C21.5426 17.065 21.4958 16.9518 21.4958 16.8338C21.4958 16.7157 21.5426 16.6025 21.6261 16.519C21.7096 16.4356 21.8228 16.3887 21.9408 16.3887ZM19.7155 19.0591H35.738C37.5183 19.0591 37.5183 20.7806 37.5183 20.7806V26.1802C37.5183 26.1802 37.5183 27.9605 35.738 27.9605H19.7155C17.9352 27.9605 17.9352 26.1802 17.9352 26.1802V20.8394C17.9352 20.8394 17.9352 19.0591 19.7155 19.0591ZM19.7155 31.5211C20.1876 31.5211 20.6405 31.7086 20.9743 32.0425C21.3082 32.3764 21.4958 32.8292 21.4958 33.3014C21.4958 33.7735 21.3082 34.2263 20.9743 34.5602C20.6405 34.8941 20.1876 35.0816 19.7155 35.0816C19.2433 35.0816 18.7905 34.8941 18.4566 34.5602C18.1228 34.2263 17.9352 33.7735 17.9352 33.3014C17.9352 32.8292 18.1228 32.3764 18.4566 32.0425C18.7905 31.7086 19.2433 31.5211 19.7155 31.5211ZM35.738 31.5211C36.2102 31.5211 36.663 31.7086 36.9969 32.0425C37.3307 32.3764 37.5183 32.8292 37.5183 33.3014C37.5183 33.7735 37.3307 34.2263 36.9969 34.5602C36.663 34.8941 36.2102 35.0816 35.738 35.0816C35.2658 35.0816 34.813 34.8941 34.4792 34.5602C34.1453 34.2263 33.9577 33.7735 33.9577 33.3014C33.9577 32.8292 34.1453 32.3764 34.4792 32.0425C34.813 31.7086 35.2658 31.5211 35.738 31.5211Z" fill="#673AB7"/>
</svg>
