<svg width="28" height="29" viewBox="0 0 28 29" fill="none" xmlns="http://www.w3.org/2000/svg">
<path fill-rule="evenodd" clip-rule="evenodd" d="M19.9674 5.79179C19.9674 5.46495 19.7025 5.2 19.3757 5.2H9.29179C8.96495 5.2 8.7 5.46495 8.7 5.79179L8.7 23.3404L12.1607 19.8798C13.3613 18.6807 15.3062 18.6807 16.5075 19.8805L19.9674 23.3404V5.79179ZM19.3207 25.0978L15.3054 21.0826C14.7686 20.5464 13.8989 20.5464 13.362 21.0826L9.34679 25.0978C8.95354 25.4906 8.36253 25.608 7.84902 25.3954C7.33551 25.1827 7.00049 24.6819 7 24.1261V5.79179C7 4.52607 8.02607 3.5 9.29179 3.5H19.3757C20.6414 3.5 21.6674 4.52607 21.6674 5.79179V24.1261C21.667 24.6819 21.3319 25.1827 20.8184 25.3954C20.3049 25.608 19.7139 25.4906 19.3207 25.0978ZM14.6575 7.71907L15.4113 9.31079L16.955 9.4749C17.1102 9.49654 17.2385 9.60676 17.2833 9.75692C17.3281 9.90708 17.2811 10.0696 17.1631 10.1727L15.9357 11.1854L16.3159 12.8865C16.3458 13.04 16.2835 13.1969 16.1564 13.2882C16.0294 13.3794 15.8608 13.3882 15.7249 13.3108L14.2999 12.4449L12.8763 13.3108C12.7404 13.3882 12.5718 13.3794 12.4447 13.2882C12.3176 13.1969 12.2553 13.04 12.2852 12.8865L12.6655 11.1854L11.4367 10.1727C11.3186 10.0694 11.2718 9.90665 11.3169 9.7564C11.362 9.60616 11.4907 9.49611 11.6462 9.4749L13.1898 9.31079L13.9437 7.71907C14.0119 7.58467 14.1499 7.5 14.3006 7.5C14.4513 7.5 14.5892 7.58467 14.6575 7.71907Z" fill="#7C7C7C"/>
</svg>
