<svg width="54" height="54" viewBox="0 0 54 54" fill="none" xmlns="http://www.w3.org/2000/svg">
<circle cx="26.7183" cy="26.8029" r="26.7042" fill="#F6F6F6"/>
<path d="M38.7352 18.8196C38.7392 18.6246 38.7259 16.8635 36.9995 15.1678C35.2997 13.4988 33.5853 13.4507 33.3944 13.4507H20.0369C19.7178 13.4507 18.0435 13.5348 16.4212 15.1891C14.7495 16.8929 14.7014 18.6033 14.7014 18.7915V22.7972H13.3662V26.8028H14.7014V34.8141C14.7014 35.7941 15.2435 36.6473 16.0366 37.112V38.8197C16.0366 39.1738 16.1773 39.5134 16.4277 39.7638C16.6781 40.0142 17.0177 40.1549 17.3718 40.1549H18.7071C19.0612 40.1549 19.4008 40.0142 19.6512 39.7638C19.9016 39.5134 20.0423 39.1738 20.0423 38.8197V37.4845H33.3944V38.8197C33.3944 39.1738 33.5351 39.5134 33.7855 39.7638C34.0359 40.0142 34.3755 40.1549 34.7296 40.1549H36.0648C36.4189 40.1549 36.7585 40.0142 37.0089 39.7638C37.2593 39.5134 37.4 39.1738 37.4 38.8197V37.1146C37.8051 36.8823 38.1418 36.5473 38.3762 36.1435C38.6106 35.7396 38.7345 35.281 38.7352 34.8141V26.8028H40.0704V22.7972H38.7352V18.8196ZM22.7127 16.1211H30.724V18.7915H22.7127V16.1211ZM19.3747 34.8141C18.8433 34.8139 18.3338 34.6026 17.9582 34.2268C17.5826 33.8509 17.3717 33.3413 17.3718 32.8099C17.372 32.2786 17.5833 31.769 17.9591 31.3934C18.335 31.0178 18.8446 30.8069 19.376 30.8071C19.9074 30.8073 20.4169 31.0185 20.7925 31.3944C21.1681 31.7702 21.379 32.2799 21.3788 32.8112C21.3786 33.3426 21.1674 33.8521 20.7915 34.2277C20.4157 34.6033 19.906 34.8142 19.3747 34.8141ZM25.3831 28.138H17.3718V21.462H25.3831V28.138ZM34.062 34.8141C33.5306 34.8139 33.0211 34.6026 32.6455 34.2268C32.2699 33.8509 32.059 33.3413 32.0592 32.8099C32.0593 32.2786 32.2706 31.769 32.6464 31.3934C33.0223 31.0178 33.532 30.8069 34.0633 30.8071C34.5947 30.8073 35.1042 31.0185 35.4798 31.3944C35.8554 31.7702 36.0663 32.2799 36.0661 32.8112C36.066 33.3426 35.8547 33.8521 35.4789 34.2277C35.103 34.6033 34.5933 34.8142 34.062 34.8141ZM36.0648 28.138H28.0535V21.462H36.0648V28.138Z" fill="#795548"/>
</svg>
