<svg width="28" height="29" viewBox="0 0 28 29" fill="none" xmlns="http://www.w3.org/2000/svg">
<path fill-rule="evenodd" clip-rule="evenodd" d="M20.4453 5.21875H21.5625C23.4579 5.21875 25 6.76081 25 8.65625V13.5547C25 14.0293 24.6153 14.4141 24.1406 14.4141C23.666 14.4141 23.2812 14.0293 23.2812 13.5547V8.65625C23.2812 7.70853 22.5102 6.9375 21.5625 6.9375H20.4453V7.79688C20.4453 8.27151 20.0606 8.65625 19.5859 8.65625C19.1113 8.65625 18.7266 8.27151 18.7266 7.79688V6.9375H14.8164V7.79688C14.8164 8.27151 14.4317 8.65625 13.957 8.65625C13.4824 8.65625 13.0977 8.27151 13.0977 7.79688V6.9375H9.23047V7.79688C9.23047 8.27151 8.84573 8.65625 8.37109 8.65625C7.89646 8.65625 7.51172 8.27151 7.51172 7.79688V6.9375H6.4375C5.48978 6.9375 4.71875 7.70853 4.71875 8.65625V22.0625C4.71875 23.0102 5.48978 23.7812 6.4375 23.7812H13.0117C13.4864 23.7812 13.8711 24.166 13.8711 24.6406C13.8711 25.1153 13.4864 25.5 13.0117 25.5H6.4375C4.54206 25.5 3 23.9579 3 22.0625V8.65625C3 6.76081 4.54206 5.21875 6.4375 5.21875H7.51172V4.35938C7.51172 3.88474 7.89646 3.5 8.37109 3.5C8.84573 3.5 9.23047 3.88474 9.23047 4.35938V5.21875H13.0977V4.35938C13.0977 3.88474 13.4824 3.5 13.957 3.5C14.4317 3.5 14.8164 3.88474 14.8164 4.35938V5.21875H18.7266V4.35938C18.7266 3.88474 19.1113 3.5 19.5859 3.5C20.0606 3.5 20.4453 3.88474 20.4453 4.35938V5.21875ZM20.6602 19.4414H21.0469C21.5215 19.4414 21.9062 19.8261 21.9062 20.3008C21.9062 20.7754 21.5215 21.1602 21.0469 21.1602H19.8008C19.3261 21.1602 18.9414 20.7754 18.9414 20.3008V18.5391C18.9414 18.0644 19.3261 17.6797 19.8008 17.6797C20.2754 17.6797 20.6602 18.0644 20.6602 18.5391V19.4414ZM15.8477 13.3828C16.3223 13.3828 16.707 12.9981 16.707 12.5234C16.707 12.0488 16.3223 11.6641 15.8477 11.6641C15.373 11.6641 14.9883 12.0488 14.9883 12.5234C14.9883 12.9981 15.373 13.3828 15.8477 13.3828ZM12.9688 16.2617C12.9688 16.7363 12.584 17.1211 12.1094 17.1211C11.6348 17.1211 11.25 16.7363 11.25 16.2617C11.25 15.7871 11.6348 15.4023 12.1094 15.4023C12.584 15.4023 12.9688 15.7871 12.9688 16.2617ZM8.37109 13.3828C8.84571 13.3828 9.23047 12.9981 9.23047 12.5234C9.23047 12.0488 8.84571 11.6641 8.37109 11.6641C7.89647 11.6641 7.51172 12.0488 7.51172 12.5234C7.51172 12.9981 7.89647 13.3828 8.37109 13.3828ZM9.23047 16.2617C9.23047 16.7363 8.84571 17.1211 8.37109 17.1211C7.89647 17.1211 7.51172 16.7363 7.51172 16.2617C7.51172 15.7871 7.89647 15.4023 8.37109 15.4023C8.84571 15.4023 9.23047 15.7871 9.23047 16.2617ZM8.37109 20.8594C8.84571 20.8594 9.23047 20.4746 9.23047 20C9.23047 19.5254 8.84571 19.1406 8.37109 19.1406C7.89647 19.1406 7.51172 19.5254 7.51172 20C7.51172 20.4746 7.89647 20.8594 8.37109 20.8594ZM12.9688 20C12.9688 20.4746 12.584 20.8594 12.1094 20.8594C11.6348 20.8594 11.25 20.4746 11.25 20C11.25 19.5254 11.6348 19.1406 12.1094 19.1406C12.584 19.1406 12.9688 19.5254 12.9688 20ZM12.1094 13.3828C12.584 13.3828 12.9688 12.9981 12.9688 12.5234C12.9688 12.0488 12.584 11.6641 12.1094 11.6641C11.6348 11.6641 11.25 12.0488 11.25 12.5234C11.25 12.9981 11.6348 13.3828 12.1094 13.3828ZM20.4453 12.5234C20.4453 12.9981 20.0606 13.3828 19.5859 13.3828C19.1113 13.3828 18.7266 12.9981 18.7266 12.5234C18.7266 12.0488 19.1113 11.6641 19.5859 11.6641C20.0606 11.6641 20.4453 12.0488 20.4453 12.5234Z" fill="#7C7C7C"/>
<circle cx="20" cy="20.5" r="5.25" stroke="#7C7C7C" stroke-width="1.5"/>
</svg>
