<svg width="54" height="54" viewBox="0 0 54 54" fill="none" xmlns="http://www.w3.org/2000/svg">
<circle cx="26.7042" cy="26.7042" r="26.7042" fill="#F6F6F6"/>
<path d="M32.046 36.0518H21.3638V38.0547C21.3638 38.5859 21.1528 39.0954 20.7771 39.471C20.4015 39.8466 19.8921 40.0576 19.3609 40.0576H18.0256C17.4944 40.0576 16.9849 39.8466 16.6093 39.471C16.2337 39.0954 16.0227 38.5859 16.0227 38.0547V35.8248C15.2414 35.5484 14.5651 35.0365 14.0868 34.3598C13.6086 33.683 13.3519 32.8746 13.3521 32.0459V28.0401C13.3521 27.2122 13.6031 26.4431 14.0331 25.8049L15.4832 16.725C15.6338 15.7838 16.115 14.9272 16.8404 14.309C17.5658 13.6908 18.4879 13.3515 19.441 13.3521H33.9688C34.9212 13.3528 35.8421 13.6929 36.5664 14.3113C37.2908 14.9296 37.7711 15.7858 37.9212 16.7263L39.3673 25.7928C39.8026 26.4338 40.0563 27.2082 40.0563 28.0401V32.0459C40.0566 32.8746 39.7999 33.683 39.3216 34.3598C38.8433 35.0365 38.167 35.5484 37.3858 35.8248V38.0547C37.3858 38.5859 37.1748 39.0954 36.7991 39.471C36.4235 39.8466 35.9141 40.0576 35.3829 40.0576H34.0476C33.5164 40.0576 33.0069 39.8466 32.6313 39.471C32.2557 39.0954 32.0447 38.5859 32.0447 38.0547V36.0518H32.046ZM36.3857 24.0476L35.2854 17.1469C35.2353 16.8337 35.0752 16.5485 34.834 16.3425C34.5928 16.1365 34.286 16.0231 33.9688 16.0226H19.4396C19.1219 16.0224 18.8146 16.1355 18.5728 16.3416C18.331 16.5477 18.1706 16.8332 18.1204 17.1469L17.0188 24.049C17.1316 24.0393 17.2447 24.0344 17.3579 24.0343H36.0518C36.164 24.0343 36.2762 24.0383 36.3857 24.0476ZM34.0489 32.0459C34.5801 32.0459 35.0896 31.8349 35.4652 31.4593C35.8408 31.0837 36.0518 30.5742 36.0518 30.043C36.0518 29.5118 35.8408 29.0024 35.4652 28.6267C35.0896 28.2511 34.5801 28.0401 34.0489 28.0401C33.5177 28.0401 33.0083 28.2511 32.6326 28.6267C32.257 29.0024 32.046 29.5118 32.046 30.043C32.046 30.5742 32.257 31.0837 32.6326 31.4593C33.0083 31.8349 33.5177 32.0459 34.0489 32.0459ZM19.3609 32.0459C19.8921 32.0459 20.4015 31.8349 20.7771 31.4593C21.1528 31.0837 21.3638 30.5742 21.3638 30.043C21.3638 29.5118 21.1528 29.0024 20.7771 28.6267C20.4015 28.2511 19.8921 28.0401 19.3609 28.0401C18.8297 28.0401 18.3202 28.2511 17.9446 28.6267C17.569 29.0024 17.3579 29.5118 17.3579 30.043C17.3579 30.5742 17.569 31.0837 17.9446 31.4593C18.3202 31.8349 18.8297 32.0459 19.3609 32.0459ZM20.3009 17.4834C20.4762 17.4834 20.6499 17.5179 20.8119 17.585C20.9739 17.6521 21.1211 17.7505 21.2451 17.8745C21.3691 17.9985 21.4674 18.1457 21.5345 18.3077C21.6016 18.4697 21.6362 18.6433 21.6362 18.8187V21.4892C21.6362 21.8434 21.4955 22.183 21.2451 22.4334C20.9947 22.6838 20.655 22.8245 20.3009 22.8245C19.9468 22.8245 19.6071 22.6838 19.3567 22.4334C19.1063 22.183 18.9656 21.8434 18.9656 21.4892V18.8187C18.9656 18.4645 19.1063 18.1249 19.3567 17.8745C19.6071 17.6241 19.9468 17.4834 20.3009 17.4834Z" fill="#CCDB39"/>
</svg>
