<svg width="22" height="23" viewBox="0 0 22 23" fill="none" xmlns="http://www.w3.org/2000/svg">
<path fill-rule="evenodd" clip-rule="evenodd" d="M11 0.5C4.92525 0.5 0 5.42525 0 11.5C0 17.5747 4.92525 22.5 11 22.5C17.0747 22.5 22 17.5747 22 11.5C22 5.42525 17.0747 0.5 11 0.5ZM11 20.6C5.982 20.6 1.9 16.518 1.9 11.5C1.9 6.482 5.982 2.4 11 2.4C16.018 2.4 20.1 6.482 20.1 11.5C20.1 16.518 16.018 20.6 11 20.6ZM15.4481 6.1045L12.8892 7.70225L11.1801 8.76788C12.5524 8.85863 13.6414 9.94625 13.7321 11.3199L14.7978 9.61213L16.3955 7.05188C16.566 6.781 16.5261 6.42763 16.2992 6.20213C16.071 5.97388 15.7163 5.93538 15.4481 6.1045ZM8.26787 11.6801L7.20225 13.3892L5.6045 15.9495C5.434 16.2204 5.47388 16.5737 5.70075 16.7992C5.83413 16.9312 6.01013 17 6.1875 17C6.314 17 6.4405 16.9656 6.55188 16.8955L9.11075 15.2978L10.8199 14.2321C9.44763 14.1414 8.35863 13.0524 8.26787 11.6801ZM11.1801 8.76787C11.1196 8.76375 11.0619 8.75 11 8.75C9.48063 8.75 8.25 9.98063 8.25 11.5C8.25 11.5619 8.26375 11.6196 8.26787 11.6801C8.35863 13.0524 9.44763 14.1414 10.8199 14.2321C10.8804 14.2362 10.9381 14.25 11 14.25C12.5194 14.25 13.75 13.0194 13.75 11.5C13.75 11.4381 13.7362 11.3804 13.7321 11.3199C13.6414 9.94763 12.5524 8.85863 11.1801 8.76787ZM9.625 11.5C9.625 10.7424 10.2424 10.125 11 10.125C11.7576 10.125 12.375 10.7424 12.375 11.5C12.375 12.2576 11.7576 12.875 11 12.875C10.2424 12.875 9.625 12.2576 9.625 11.5Z" fill="#7C7C7C"/>
</svg>
