<svg width="54" height="54" viewBox="0 0 54 54" fill="none" xmlns="http://www.w3.org/2000/svg">
<circle cx="27.2958" cy="26.8029" r="26.7042" fill="#F6F6F6"/>
<path d="M27.6954 13.4525H27.2949C25.5416 13.4525 23.8054 13.7978 22.1856 14.4688C20.5657 15.1398 19.0939 16.1232 17.8541 17.363C15.3503 19.8668 13.9437 23.2627 13.9437 26.8037C13.9437 30.3447 15.3503 33.7406 17.8541 36.2444C19.0939 37.4842 20.5657 38.4676 22.1856 39.1386C23.8054 39.8096 25.5416 40.1549 27.2949 40.1549C31.3002 40.1549 33.5699 38.8198 35.9731 36.8171C28.63 38.8198 21.9544 33.4793 21.9544 26.8037C21.9544 20.1281 28.63 14.7876 35.9731 16.7903C34.8879 15.7071 33.5957 14.8534 32.1736 14.2799C30.7515 13.7065 29.2285 13.4251 27.6954 13.4525ZM33.7034 19.06L31.7008 23.7329L26.7608 24.1335L30.6327 27.4713L29.4311 32.1442L33.7034 29.4739L37.9758 32.1442L36.6407 27.4713L40.6461 24.1335L35.7061 23.7329L33.7034 19.06Z" fill="#8BC24A"/>
</svg>
