<svg width="55" height="54" viewBox="0 0 55 54" fill="none" xmlns="http://www.w3.org/2000/svg">
<circle cx="27.4929" cy="27.0704" r="26.7042" fill="#F6F6F6"/>
<path d="M30.3159 13.6338L28.9764 14.9733L30.9609 16.9579C31.2338 17.2679 31.3702 17.6276 31.3702 18.0369C31.3702 18.4463 31.2338 18.8308 30.9609 19.1036L26.5578 23.5812L27.7981 24.9208L32.3005 20.4432C32.9578 19.7114 33.2803 18.9052 33.2803 18.0369C33.2803 17.1687 32.9578 16.3501 32.3005 15.6183L30.3159 13.6338ZM25.3794 16.1392L24.0399 17.4788L24.7965 18.1734C25.0694 18.4463 25.2058 18.8184 25.2058 19.2773C25.2058 19.7362 25.0694 20.1083 24.7965 20.3812L24.0399 21.0757L25.3794 22.4153L26.074 21.6587C26.7314 20.9269 27.0663 20.1331 27.0663 19.2773C27.0663 18.3842 26.7314 17.578 26.074 16.8338L25.3794 16.1392ZM38.3409 18.1114C37.485 18.1114 36.6912 18.4463 35.9594 19.1036L28.9764 26.0991L30.3159 27.3394L37.237 20.4432C37.5471 20.1331 37.9191 19.9719 38.3409 19.9719C38.7626 19.9719 39.1347 20.1331 39.4447 20.4432L40.2013 21.1998L41.4789 19.8602L40.7843 19.1036C40.0525 18.4463 39.2339 18.1114 38.3409 18.1114ZM20.9763 21.7579L14.7747 39.1225L32.1392 32.9209L20.9763 21.7579ZM35.8602 25.5533C34.992 25.5533 34.1982 25.8882 33.454 26.5456L31.4819 28.5177L32.8214 29.8573L34.7935 27.8851C35.1036 27.5751 35.4509 27.4138 35.8602 27.4138C36.2695 27.4138 36.6416 27.5751 36.9517 27.8851L38.961 29.8573L40.2634 28.5797L38.2788 26.5456C37.5471 25.8882 36.7284 25.5533 35.8602 25.5533Z" fill="#F34336"/>
</svg>
