<svg width="55" height="54" viewBox="0 0 55 54" fill="none" xmlns="http://www.w3.org/2000/svg">
<circle cx="27.4929" cy="26.7042" r="26.7042" fill="#F6F6F6"/>
<path d="M34.169 35.8281H36.8395V25.1464H28.8282V35.8281H31.4986V27.8168H34.169V35.8281ZM15.4761 35.8281V15.7999C15.4761 15.4458 15.6168 15.1062 15.8672 14.8558C16.1176 14.6054 16.4572 14.4647 16.8113 14.4647H35.5042C35.8584 14.4647 36.198 14.6054 36.4484 14.8558C36.6988 15.1062 36.8395 15.4458 36.8395 15.7999V22.476H39.5099V35.8281H40.8451V38.4985H14.1409V35.8281H15.4761ZM20.8169 25.1464V27.8168H23.4873V25.1464H20.8169ZM20.8169 30.4873V33.1577H23.4873V30.4873H20.8169ZM20.8169 19.8056V22.476H23.4873V19.8056H20.8169Z" fill="#00BCD3"/>
</svg>
