<svg width="54" height="54" viewBox="0 0 54 54" fill="none" xmlns="http://www.w3.org/2000/svg">
<circle cx="27.0704" cy="27.0703" r="26.7042" fill="#F6F6F6"/>
<path d="M20.4507 17.3382C20.4507 18.2235 20.099 19.0725 19.473 19.6985C18.847 20.3245 17.998 20.6762 17.1127 20.6762C16.2274 20.6762 15.3783 20.3245 14.7523 19.6985C14.1263 19.0725 13.7747 18.2235 13.7747 17.3382C13.7747 16.4529 14.1263 15.6038 14.7523 14.9778C15.3783 14.3518 16.2274 14.0001 17.1127 14.0001C17.998 14.0001 18.847 14.3518 19.473 14.9778C20.099 15.6038 20.4507 16.4529 20.4507 17.3382Z" fill="#4E4E4E"/>
<path d="M20.4507 27.3521C20.4507 28.2374 20.099 29.0864 19.473 29.7124C18.847 30.3384 17.998 30.6901 17.1127 30.6901C16.2274 30.6901 15.3783 30.3384 14.7523 29.7124C14.1263 29.0864 13.7747 28.2374 13.7747 27.3521C13.7747 26.4668 14.1263 25.6177 14.7523 24.9917C15.3783 24.3657 16.2274 24.014 17.1127 24.014C17.998 24.014 18.847 24.3657 19.473 24.9917C20.099 25.6177 20.4507 26.4668 20.4507 27.3521Z" fill="#4E4E4E"/>
<path d="M17.1127 40.7041C17.998 40.7041 18.847 40.3524 19.473 39.7264C20.099 39.1004 20.4507 38.2514 20.4507 37.3661C20.4507 36.4808 20.099 35.6318 19.473 35.0058C18.847 34.3798 17.998 34.0281 17.1127 34.0281C16.2274 34.0281 15.3783 34.3798 14.7523 35.0058C14.1263 35.6318 13.7747 36.4808 13.7747 37.3661C13.7747 38.2514 14.1263 39.1004 14.7523 39.7264C15.3783 40.3524 16.2274 40.7041 17.1127 40.7041Z" fill="#4E4E4E"/>
<path d="M30.4648 17.338C30.4648 18.2233 30.1131 19.0724 29.4871 19.6984C28.8611 20.3244 28.0121 20.6761 27.1268 20.6761C26.2415 20.6761 25.3924 20.3244 24.7664 19.6984C24.1404 19.0724 23.7888 18.2233 23.7888 17.338C23.7888 16.4527 24.1404 15.6037 24.7664 14.9777C25.3924 14.3517 26.2415 14 27.1268 14C28.0121 14 28.8611 14.3517 29.4871 14.9777C30.1131 15.6037 30.4648 16.4527 30.4648 17.338Z" fill="#4E4E4E"/>
<path d="M27.1268 30.6901C28.0121 30.6901 28.8611 30.3384 29.4871 29.7124C30.1131 29.0864 30.4648 28.2374 30.4648 27.3521C30.4648 26.4668 30.1131 25.6177 29.4871 24.9917C28.8611 24.3657 28.0121 24.014 27.1268 24.014C26.2415 24.014 25.3924 24.3657 24.7664 24.9917C24.1404 25.6177 23.7888 26.4668 23.7888 27.3521C23.7888 28.2374 24.1404 29.0864 24.7664 29.7124C25.3924 30.3384 26.2415 30.6901 27.1268 30.6901Z" fill="#4E4E4E"/>
<path d="M30.4648 37.3661C30.4648 38.2514 30.1131 39.1004 29.4871 39.7264C28.8611 40.3524 28.0121 40.7041 27.1268 40.7041C26.2415 40.7041 25.3924 40.3524 24.7664 39.7264C24.1404 39.1004 23.7888 38.2514 23.7888 37.3661C23.7888 36.4808 24.1404 35.6318 24.7664 35.0058C25.3924 34.3798 26.2415 34.0281 27.1268 34.0281C28.0121 34.0281 28.8611 34.3798 29.4871 35.0058C30.1131 35.6318 30.4648 36.4808 30.4648 37.3661Z" fill="#4E4E4E"/>
<path d="M37.1409 20.6761C38.0262 20.6761 38.8752 20.3244 39.5012 19.6984C40.1272 19.0724 40.4789 18.2233 40.4789 17.338C40.4789 16.4527 40.1272 15.6037 39.5012 14.9777C38.8752 14.3517 38.0262 14 37.1409 14C36.2556 14 35.4065 14.3517 34.7805 14.9777C34.1545 15.6037 33.8029 16.4527 33.8029 17.338C33.8029 18.2233 34.1545 19.0724 34.7805 19.6984C35.4065 20.3244 36.2556 20.6761 37.1409 20.6761Z" fill="#4E4E4E"/>
<path d="M40.4789 27.3521C40.4789 28.2374 40.1272 29.0864 39.5012 29.7124C38.8752 30.3384 38.0262 30.6901 37.1409 30.6901C36.2556 30.6901 35.4065 30.3384 34.7805 29.7124C34.1545 29.0864 33.8029 28.2374 33.8029 27.3521C33.8029 26.4668 34.1545 25.6177 34.7805 24.9917C35.4065 24.3657 36.2556 24.014 37.1409 24.014C38.0262 24.014 38.8752 24.3657 39.5012 24.9917C40.1272 25.6177 40.4789 26.4668 40.4789 27.3521Z" fill="#4E4E4E"/>
<path d="M37.1409 40.7041C38.0262 40.7041 38.8752 40.3524 39.5012 39.7264C40.1272 39.1004 40.4789 38.2514 40.4789 37.3661C40.4789 36.4808 40.1272 35.6318 39.5012 35.0058C38.8752 34.3798 38.0262 34.0281 37.1409 34.0281C36.2556 34.0281 35.4065 34.3798 34.7805 35.0058C34.1545 35.6318 33.8029 36.4808 33.8029 37.3661C33.8029 38.2514 34.1545 39.1004 34.7805 39.7264C35.4065 40.3524 36.2556 40.7041 37.1409 40.7041Z" fill="#4E4E4E"/>
</svg>
