<svg width="54" height="54" viewBox="0 0 54 54" fill="none" xmlns="http://www.w3.org/2000/svg">
<circle cx="26.7042" cy="26.7042" r="26.7042" fill="#F6F6F6"/>
<path d="M15.4168 27.6668L13.3522 29.7315L20.5785 32.8285L23.677 40.0563L25.7416 37.9916L24.7093 32.8285L29.5468 27.991L34.818 39.24L36.7731 37.2849L35.0355 22.5037L39.1649 18.3729C39.4438 18.1035 39.6663 17.7813 39.8193 17.425C39.9724 17.0687 40.0529 16.6855 40.0563 16.2977C40.0597 15.91 39.9858 15.5254 39.8389 15.1665C39.6921 14.8076 39.4753 14.4816 39.2011 14.2074C38.9269 13.9332 38.6008 13.7164 38.2419 13.5695C37.883 13.4227 37.4985 13.3488 37.1107 13.3522C36.7229 13.3555 36.3397 13.4361 35.9835 13.5891C35.6272 13.7422 35.3049 13.9647 35.0355 14.2436L30.7967 18.4824L16.0155 16.7434L14.1684 18.5919L25.3299 23.9507L20.58 28.7006L15.4168 27.6668Z" fill="#3F51B5"/>
</svg>
