<svg width="54" height="54" viewBox="0 0 54 54" fill="none" xmlns="http://www.w3.org/2000/svg">
<circle cx="26.7042" cy="26.7042" r="26.7042" fill="#F6F6F6"/>
<path d="M37.1634 40.0563H15.8C15.4459 40.0563 15.1063 39.9156 14.8559 39.6652C14.6055 39.4148 14.4648 39.0752 14.4648 38.7211V14.6873C14.4648 14.3331 14.6055 13.9935 14.8559 13.7431C15.1063 13.4927 15.4459 13.3521 15.8 13.3521H37.1634C37.5175 13.3521 37.8571 13.4927 38.1075 13.7431C38.3579 13.9935 38.4986 14.3331 38.4986 14.6873V38.7211C38.4986 39.0752 38.3579 39.4148 38.1075 39.6652C37.8571 39.9156 37.5175 40.0563 37.1634 40.0563ZM21.1408 22.6985V25.369H31.8225V22.6985H21.1408ZM21.1408 28.0394V30.7098H31.8225V28.0394H21.1408Z" fill="#607D8B"/>
</svg>
