<svg width="28" height="29" viewBox="0 0 28 29" fill="none" xmlns="http://www.w3.org/2000/svg">
<path fill-rule="evenodd" clip-rule="evenodd" d="M10 3.5C6.68629 3.5 4 6.18629 4 9.5V19.5C4 22.8137 6.68629 25.5 10 25.5H18C21.3137 25.5 24 22.8137 24 19.5V9.5C24 6.18629 21.3137 3.5 18 3.5H10ZM10.2143 5.10976C7.729 5.10976 5.71429 7.12447 5.71429 9.60975V19.3902C5.71429 21.8755 7.729 23.8902 10.2143 23.8902H17.7857C20.271 23.8902 22.2857 21.8755 22.2857 19.3902V9.60976C22.2857 7.12448 20.271 5.10976 17.7857 5.10976H10.2143ZM14 7.83333C15.4958 7.83333 16.7083 9.0459 16.7083 10.5417C16.7083 12.0374 15.4958 13.25 14 13.25C12.5042 13.25 11.2917 12.0374 11.2917 10.5417C11.2917 9.0459 12.5042 7.83333 14 7.83333ZM14 21.1682C15.9646 21.1682 17.8291 20.3017 19.0958 18.8C19.4121 18.4057 19.4598 17.8598 19.2167 17.4167C18.1302 15.5757 16.1373 14.4615 14 14.5C11.8627 14.4615 9.86984 15.5757 8.78333 17.4167C8.54023 17.8598 8.58792 18.4057 8.90417 18.8C10.1709 20.3017 12.0354 21.1682 14 21.1682Z" fill="#7C7C7C"/>
</svg>
