<svg width="54" height="54" viewBox="0 0 54 54" fill="none" xmlns="http://www.w3.org/2000/svg">
<circle cx="26.9296" cy="27.1691" r="26.7042" fill="#F6F6F6"/>
<path d="M31.8861 13.8169H22.1754C21.3706 13.8169 20.5988 14.1366 20.0297 14.7057C19.4606 15.2748 19.1409 16.0466 19.1409 16.8515V37.4865C19.1409 38.2914 19.4606 39.0632 20.0297 39.6323C20.5988 40.2014 21.3706 40.5211 22.1754 40.5211H31.8861C32.6909 40.5211 33.4627 40.2014 34.0318 39.6323C34.6009 39.0632 34.9206 38.2914 34.9206 37.4865V16.8515C34.9206 16.0466 34.6009 15.2748 34.0318 14.7057C33.4627 14.1366 32.6909 13.8169 31.8861 13.8169ZM27.0308 39.3073C26.0233 39.3073 25.21 38.494 25.21 37.4865C25.21 36.4791 26.0233 35.6658 27.0308 35.6658C28.0382 35.6658 28.8515 36.4791 28.8515 37.4865C28.8515 38.494 28.0382 39.3073 27.0308 39.3073ZM32.493 34.452H21.5685V17.4584H32.493V34.452Z" fill="#009688"/>
</svg>
