<svg width="54" height="54" viewBox="0 0 54 54" fill="none" xmlns="http://www.w3.org/2000/svg">
<circle cx="27.2817" cy="26.7042" r="26.7042" fill="#F6F6F6"/>
<path d="M16.6 24.7904V16.245C16.6 15.8909 16.7407 15.5513 16.9911 15.3009C17.2415 15.0505 17.5811 14.9098 17.9352 14.9098H24.6113V12.2394H29.9521V14.9098H36.6282C36.9823 14.9098 37.3219 15.0505 37.5723 15.3009C37.8227 15.5513 37.9634 15.8909 37.9634 16.245V24.7904L39.4134 25.2256C39.742 25.3245 40.0199 25.5461 40.1895 25.8445C40.359 26.1428 40.4072 26.495 40.324 26.8279L38.2998 34.93C37.2077 34.9859 36.1186 34.7724 35.1285 34.3081C34.1385 33.8438 33.2778 33.143 32.6225 32.2675C32.0012 33.0973 31.195 33.7707 30.2679 34.2343C29.3407 34.6979 28.3182 34.9388 27.2817 34.938C26.2451 34.9388 25.2226 34.6979 24.2955 34.2343C23.3684 33.7707 22.5621 33.0973 21.9408 32.2675C21.2855 33.143 20.4249 33.8438 19.4348 34.3081C18.4447 34.7724 17.3556 34.9859 16.2635 34.93L14.2393 26.8279C14.1561 26.495 14.2043 26.1428 14.3739 25.8445C14.5434 25.5461 14.8214 25.3245 15.1499 25.2256L16.6 24.7904ZM19.2704 23.9892L27.2817 21.5859L30.9588 22.6887L33.3742 23.4138L35.2929 23.9892V17.5802H19.2704V23.9892ZM16.6 37.6084C18.5711 37.6111 20.4735 36.8844 21.9408 35.5682C23.4081 36.8844 25.3106 37.6111 27.2817 37.6084C29.2528 37.6111 31.1552 36.8844 32.6225 35.5682C34.0898 36.8844 35.9922 37.6111 37.9634 37.6084H40.6338V40.2788H37.9634C36.0883 40.2819 34.2457 39.789 32.6225 38.8501C30.9994 39.789 29.1568 40.2819 27.2817 40.2788C25.4066 40.2819 23.564 39.789 21.9408 38.8501C20.3177 39.789 18.4751 40.2819 16.6 40.2788H13.9296V37.6084H16.6Z" fill="#2196F2"/>
</svg>
