<svg width="54" height="54" viewBox="0 0 54 54" fill="none" xmlns="http://www.w3.org/2000/svg">
<circle cx="26.7042" cy="27.0704" r="26.7042" fill="#F6F6F6"/>
<path d="M27.1615 31.1905L29.3331 29.0189L38.0347 37.7205C38.6269 38.3127 38.6269 39.2846 38.0347 39.8921C37.4424 40.4843 36.4705 40.4843 35.8631 39.8921L27.1615 31.1905ZM33.6763 22.4889L35.6049 20.5603C36.9565 19.2087 36.7743 16.8701 35.1342 15.883C32.1995 14.0902 28.7475 13.3356 25.3325 13.7405C21.9175 14.1453 18.7376 15.6861 16.3035 18.1153C22.2716 16.1411 28.9231 17.7357 33.6763 22.4889ZM16.258 18.1609C11.1555 23.2786 10.4113 31.0842 14.0104 36.9915C15.0127 38.6316 17.3362 38.829 18.6877 37.4623L20.6163 35.5337C15.8783 30.7805 14.2838 24.129 16.258 18.1609ZM16.2883 18.1305L16.2731 18.1457C15.6961 22.7167 18.0499 28.5937 22.8031 33.3621L31.5047 24.6605C26.7515 19.9073 20.8593 17.5534 16.2883 18.1305Z" fill="#FEC007"/>
</svg>
