<svg width="54" height="54" viewBox="0 0 54 54" fill="none" xmlns="http://www.w3.org/2000/svg">
<circle cx="27.0704" cy="26.7042" r="26.7042" fill="#F6F6F6"/>
<path d="M27.1875 13.3521C21.5656 13.3521 15.9437 14.0548 15.9437 18.974V32.3261C15.9437 35.0387 18.1503 37.2453 20.8629 37.2453L18.7546 39.3535V40.0563H21.5656L24.3766 37.2453H29.9985L32.8095 40.0563H35.6205V39.3535L33.5122 37.2453C36.2248 37.2453 38.4314 35.0387 38.4314 32.3261V18.974C38.4314 14.0548 32.8095 13.3521 27.1875 13.3521ZM20.8629 34.4343C19.6963 34.4343 18.7546 33.4927 18.7546 32.3261C18.7546 31.1596 19.6963 30.2179 20.8629 30.2179C22.0294 30.2179 22.9711 31.1596 22.9711 32.3261C22.9711 33.4927 22.0294 34.4343 20.8629 34.4343ZM25.7821 24.5959H18.7546V18.974H25.7821V24.5959ZM33.5122 34.4343C32.3457 34.4343 31.404 33.4927 31.404 32.3261C31.404 31.1596 32.3457 30.2179 33.5122 30.2179C34.6788 30.2179 35.6205 31.1596 35.6205 32.3261C35.6205 33.4927 34.6788 34.4343 33.5122 34.4343ZM35.6205 24.5959H28.593V18.974H35.6205V24.5959Z" fill="#FE9800"/>
</svg>
