<svg width="54" height="55" viewBox="0 0 54 55" fill="none" xmlns="http://www.w3.org/2000/svg">
<circle cx="27.2958" cy="27.4366" r="26.7042" fill="#F6F6F6"/>
<path d="M16.169 33.7613C16.169 34.9981 16.7171 36.1084 17.5745 36.8814V39.3832C17.5745 40.1562 18.207 40.7887 18.98 40.7887H20.3855C21.1585 40.7887 21.7909 40.1562 21.7909 39.3832V37.9777H33.0348V39.3832C33.0348 40.1562 33.6673 40.7887 34.4403 40.7887H35.8458C36.6188 40.7887 37.2513 40.1562 37.2513 39.3832V36.8814C38.1086 36.1084 38.6568 34.9981 38.6568 33.7613V19.7064C38.6568 14.7872 33.6251 14.0845 27.4129 14.0845C21.2006 14.0845 16.169 14.7872 16.169 19.7064V33.7613ZM21.0882 35.1668C19.9217 35.1668 18.98 34.2251 18.98 33.0585C18.98 31.892 19.9217 30.9503 21.0882 30.9503C22.2548 30.9503 23.1964 31.892 23.1964 33.0585C23.1964 34.2251 22.2548 35.1668 21.0882 35.1668ZM33.7376 35.1668C32.571 35.1668 31.6293 34.2251 31.6293 33.0585C31.6293 31.892 32.571 30.9503 33.7376 30.9503C34.9041 30.9503 35.8458 31.892 35.8458 33.0585C35.8458 34.2251 34.9041 35.1668 33.7376 35.1668ZM35.8458 26.7338H18.98V19.7064H35.8458V26.7338Z" fill="#03A9F3"/>
</svg>
