<svg width="54" height="54" viewBox="0 0 54 54" fill="none" xmlns="http://www.w3.org/2000/svg">
<circle cx="26.7042" cy="26.7042" r="26.7042" fill="#F6F6F6"/>
<path d="M27.572 22.3339L27.8624 22.0101L32.5062 23.3046C32.5062 23.6284 32.7966 23.6284 32.7966 23.9522V24.5998C32.7864 24.7679 32.722 24.9261 32.6152 25.0452C32.5084 25.1643 32.3665 25.2361 32.2158 25.2474L27.8617 23.6291C27.5713 23.6291 27.5713 23.6291 27.5713 23.3053L27.572 22.3339ZM34.2479 24.5998C34.2581 24.4318 34.3226 24.2736 34.4294 24.1545C34.5362 24.0354 34.6781 23.9635 34.8288 23.9522L38.3116 25.2467C38.35 25.2458 38.3881 25.2535 38.4237 25.2695C38.4593 25.2854 38.4917 25.3092 38.5188 25.3395C38.5459 25.3698 38.5673 25.4058 38.5816 25.4455C38.5959 25.4852 38.6029 25.5277 38.602 25.5705V26.5382C38.6029 26.581 38.5959 26.6235 38.5816 26.6632C38.5673 26.7029 38.5459 26.739 38.5188 26.7692C38.4917 26.7995 38.4593 26.8233 38.4237 26.8393C38.3881 26.8552 38.35 26.863 38.3116 26.862L34.5384 25.8943C34.2479 25.5705 34.2479 25.5705 34.2479 25.2467V24.5998ZM26.1233 23.3053C26.1241 23.3481 26.1171 23.3906 26.1028 23.4303C26.0885 23.47 26.0672 23.5061 26.04 23.5363C26.0129 23.5666 25.9806 23.5904 25.945 23.6063C25.9094 23.6223 25.8712 23.63 25.8329 23.6291L21.1891 25.2474C20.8987 25.2474 20.8987 24.9236 20.8987 24.5998V23.9522C20.8987 23.6284 20.8987 23.6284 21.1891 23.3046L25.5431 22.0101C25.7633 22.0441 25.9674 22.1578 26.1239 22.3339L26.1233 23.3053ZM19.4473 25.2474C19.4473 25.5713 19.1569 25.5713 19.1569 25.8951L15.3836 26.8628C15.0932 26.8628 14.8028 26.8628 14.8028 26.539V25.5713L15.0932 25.2474L18.8665 23.9529C19.0172 23.9643 19.1591 24.0361 19.2659 24.1552C19.3727 24.2743 19.4371 24.4325 19.4473 24.6006V25.2474ZM26.1233 19.4218L13.3521 23.6284V35.6035C13.4077 35.9604 13.5433 36.2959 13.7462 36.5788C13.9492 36.8618 14.213 37.0829 14.5131 37.2218L25.8329 39.8108C26.152 39.9726 26.4984 40.0563 26.8489 40.0563C27.1995 40.0563 27.546 39.9726 27.8651 39.8108L38.8951 37.2218C39.2252 37.1402 39.5203 36.9353 39.7315 36.6409C39.9427 36.3465 40.0572 35.9804 40.0561 35.6035V23.6284L27.2849 19.4196C27.124 19.2632 26.9178 19.177 26.7044 19.177C26.491 19.177 26.2848 19.2632 26.1239 19.4196L26.1233 19.4218ZM39.1849 17.8035L28.1548 13.5962C27.2092 13.2707 26.1976 13.2707 25.2521 13.5962L14.5124 17.8035C14.1828 17.8851 13.888 18.0898 13.677 18.3837C13.466 18.6776 13.3514 19.0431 13.3521 19.4196V22.0086L25.8362 17.8013C26.1553 17.6395 26.5018 17.5558 26.8523 17.5558C27.2028 17.5558 27.5493 17.6395 27.8684 17.8013L40.0561 22.0101V19.4196C40.0616 19.0865 39.9832 18.7584 39.8298 18.4726C39.6763 18.1868 39.4541 17.9547 39.1882 17.8027L39.1849 17.8035Z" fill="#4CAF50"/>
</svg>
